<svg width="228" height="57" viewBox="0 0 228 57" fill="none" xmlns="http://www.w3.org/2000/svg">
<path d="M13.595 0.165H0V34.718H13.595C15.9005 34.7762 18.1943 34.3723 20.3412 33.5303C22.4882 32.6882 24.4449 31.4249 26.0961 29.8149C27.7472 28.2049 29.0595 26.2807 29.9554 24.1556C30.8514 22.0306 31.313 19.7477 31.313 17.4415C31.313 15.1353 30.8514 12.8524 29.9554 10.7274C29.0595 8.60237 27.7472 6.67813 26.0961 5.06811C24.4449 3.45808 22.4882 2.19482 20.3412 1.35274C18.1943 0.510673 15.9005 0.106822 13.595 0.165ZM11.626 24.065C11.6249 24.8558 11.3103 25.614 10.7511 26.1731C10.1919 26.7323 9.43382 27.047 8.64301 27.048C7.85219 27.047 7.09406 26.7323 6.53487 26.1731C5.97567 25.614 5.66106 24.8558 5.66 24.065V10.815C5.66106 10.0242 5.97567 9.26606 6.53487 8.70687C7.09406 8.14768 7.85219 7.83308 8.64301 7.83202C9.43382 7.83308 10.1919 8.14768 10.7511 8.70687C11.3103 9.26606 11.6249 10.0242 11.626 10.815V24.065Z" fill="#346BAD"/>
<path d="M37.861 33.33C37.6546 33.126 37.4922 32.882 37.3839 32.6128C37.2755 32.3436 37.2235 32.0551 37.231 31.765V10.816C37.2242 10.523 37.2766 10.2317 37.3848 9.95943C37.493 9.68713 37.655 9.4394 37.861 9.23101C38.0605 9.01683 38.3031 8.84729 38.5729 8.73354C38.8426 8.61979 39.1333 8.5644 39.426 8.57101C40.0207 8.57285 40.5905 8.80984 41.0111 9.23025C41.4316 9.65065 41.6689 10.2204 41.671 10.815V12.915C43.945 9.8537 46.5013 8.32469 49.34 8.32803H49.586C49.8727 8.32046 50.1577 8.37355 50.4224 8.48385C50.6871 8.59414 50.9255 8.75913 51.122 8.96801C51.3218 9.17576 51.4786 9.42101 51.5833 9.6896C51.688 9.95819 51.7385 10.2448 51.732 10.533C51.7402 10.8159 51.6883 11.0973 51.5797 11.3586C51.4711 11.62 51.3083 11.8553 51.102 12.049C50.6603 12.4458 50.0812 12.6543 49.488 12.63H49.241C47.732 12.6154 46.2478 13.0138 44.949 13.782C43.6298 14.564 42.511 15.6425 41.681 16.932V31.777C41.6876 32.0697 41.6322 32.3604 41.5185 32.6301C41.4047 32.8999 41.2352 33.1425 41.021 33.342C40.8126 33.5487 40.5651 33.7117 40.2929 33.8216C40.0208 33.9315 39.7295 33.986 39.436 33.982C39.1432 33.9844 38.8528 33.9279 38.5823 33.8159C38.3117 33.7039 38.0664 33.5387 37.861 33.33Z" fill="#346BAD"/>
<path d="M59.754 32.947C58.437 32.1008 57.3859 30.8997 56.722 29.482C56.0111 27.971 55.6511 26.3188 55.669 24.649V10.777C55.6624 10.4844 55.7178 10.1936 55.8315 9.92388C55.9453 9.65415 56.1148 9.41157 56.329 9.21203C56.5379 9.0068 56.7858 8.84536 57.058 8.73717C57.3301 8.62899 57.6212 8.57624 57.914 8.58202C58.2047 8.5756 58.4936 8.62812 58.7634 8.73641C59.0333 8.8447 59.2783 9.00651 59.4839 9.21209C59.6895 9.41767 59.8513 9.66276 59.9596 9.93258C60.0679 10.2024 60.1204 10.4913 60.114 10.782V24.152C60.114 28.129 61.906 30.108 65.489 30.108C67.04 30.1295 68.562 29.6872 69.86 28.838C71.2462 27.8981 72.4753 26.7453 73.502 25.422V10.777C73.4954 10.4844 73.5508 10.1936 73.6645 9.92388C73.7783 9.65415 73.9478 9.41157 74.162 9.21203C74.371 9.0068 74.6188 8.84536 74.891 8.73717C75.1631 8.62899 75.4542 8.57624 75.747 8.58202C76.0377 8.5756 76.3266 8.62812 76.5964 8.73641C76.8662 8.8447 77.1113 9.00651 77.3169 9.21209C77.5225 9.41767 77.6843 9.66276 77.7926 9.93258C77.9009 10.2024 77.9534 10.4913 77.947 10.782V31.731C77.9515 32.0237 77.8981 32.3143 77.79 32.5863C77.6819 32.8583 77.5211 33.1063 77.317 33.316C77.1175 33.5302 76.8748 33.6997 76.6051 33.8135C76.3354 33.9272 76.0447 33.9826 75.752 33.976C75.1575 33.9739 74.588 33.7368 74.1676 33.3164C73.7472 32.8961 73.5101 32.3265 73.508 31.732V29.732C72.3581 31.0311 71.0048 32.1348 69.501 33C67.9444 33.8465 66.1922 34.2676 64.421 34.221C62.7743 34.2609 61.152 33.818 59.754 32.947Z" fill="#346BAD"/>
<path d="M91.571 44.71C89.9197 44.3233 88.3273 43.7179 86.836 42.91C86.5461 42.7332 86.3107 42.4796 86.1561 42.1772C86.0015 41.8749 85.9336 41.5356 85.96 41.197C85.9586 40.6788 86.1599 40.1807 86.521 39.809C86.695 39.6136 86.909 39.4579 87.1485 39.3527C87.388 39.2474 87.6474 39.195 87.909 39.199C88.2108 39.2112 88.5078 39.279 88.785 39.399C91.2849 40.6462 94.0444 41.2839 96.838 41.26C101.819 41.26 104.31 38.6053 104.31 33.296V30.028C103.264 31.2065 101.978 32.1474 100.538 32.7875C99.098 33.4276 97.5377 33.752 95.962 33.739C94.008 33.7285 92.087 33.2348 90.37 32.302C88.5202 31.301 86.9759 29.8179 85.901 28.01C84.7444 25.8725 84.1387 23.4804 84.1387 21.05C84.1387 18.6196 84.7444 16.2276 85.901 14.09C86.9732 12.28 88.5182 10.7962 90.37 9.798C92.087 8.8652 94.008 8.37156 95.962 8.36102C97.5379 8.34701 99.0984 8.67099 100.538 9.31115C101.979 9.95131 103.265 10.8928 104.31 12.072V10.851C104.303 10.5581 104.356 10.2667 104.464 9.99444C104.572 9.72213 104.734 9.4744 104.94 9.26601C105.14 9.05184 105.382 8.8823 105.652 8.76855C105.922 8.6548 106.212 8.59941 106.505 8.60601C106.801 8.60021 107.094 8.65588 107.367 8.76949C107.64 8.88311 107.886 9.05219 108.09 9.26601C108.301 9.47202 108.469 9.71863 108.582 9.99102C108.695 10.2634 108.753 10.556 108.75 10.851V32.676C108.75 36.7814 107.756 39.938 105.767 42.146C103.778 44.361 100.953 45.464 97.267 45.464C95.3449 45.4425 93.4325 45.1894 91.571 44.71ZM100.943 28.693C102.19 27.9861 103.325 27.097 104.31 26.055V15.994C103.322 14.955 102.188 14.0662 100.943 13.356C99.3345 12.5434 97.5204 12.2283 95.732 12.4509C93.9437 12.6735 92.2622 13.4238 90.902 14.606C89.4008 16.408 88.5788 18.6792 88.5788 21.0245C88.5788 23.3698 89.4008 25.641 90.902 27.443C91.7039 28.1897 92.6455 28.7707 93.6726 29.1525C94.6997 29.5343 95.792 29.7095 96.887 29.668C98.3004 29.6975 99.6974 29.3616 100.943 28.693Z" fill="#346BAD"/>
<path d="M115.641 32.011C115.378 31.8342 115.164 31.5932 115.019 31.3109C114.874 31.0286 114.804 30.7141 114.814 30.397C114.808 29.8877 115.002 29.3965 115.355 29.029C115.527 28.8381 115.738 28.6872 115.975 28.5868C116.211 28.4865 116.466 28.4391 116.723 28.448C117.026 28.4519 117.324 28.5201 117.599 28.648C118.608 29.0916 119.652 29.4505 120.72 29.721C121.871 29.9927 123.051 30.125 124.234 30.115C127.847 30.115 129.655 28.96 129.658 26.65C129.65 26.2722 129.527 25.9057 129.306 25.5996C129.084 25.2935 128.775 25.0623 128.418 24.937C127.099 24.3831 125.735 23.9419 124.342 23.618C122.723 23.2551 121.131 22.7814 119.577 22.2C118.344 21.7214 117.241 20.9592 116.358 19.975C115.429 18.8834 114.95 17.4789 115.019 16.047C114.986 14.9937 115.191 13.9465 115.618 12.9834C116.046 12.0204 116.686 11.1663 117.49 10.485C119.134 9.05767 121.487 8.34234 124.548 8.33901C126.961 8.32117 129.358 8.73467 131.626 9.56002C132.052 9.67013 132.425 9.92815 132.679 10.288C132.946 10.6596 133.073 11.114 133.036 11.5702C132.999 12.0264 132.802 12.4548 132.479 12.779C132.302 12.9688 132.087 13.1187 131.848 13.2189C131.608 13.319 131.35 13.3671 131.091 13.36C130.878 13.3541 130.666 13.3204 130.461 13.26C128.662 12.6867 126.787 12.3913 124.899 12.384C123.461 12.3034 122.03 12.6347 120.774 13.339C120.328 13.5808 119.955 13.9375 119.694 14.372C119.432 14.8064 119.292 15.303 119.287 15.81C119.272 16.264 119.394 16.712 119.638 17.0951C119.882 17.4782 120.237 17.7783 120.655 17.956C122.018 18.5554 123.445 18.9979 124.908 19.275C126.497 19.6608 128.062 20.1406 129.594 20.712C130.796 21.1843 131.862 21.949 132.694 22.937C133.605 24.0859 134.064 25.5288 133.984 26.993C133.999 27.9882 133.784 28.9734 133.355 29.8716C132.927 30.7699 132.296 31.5568 131.513 32.171C129.869 33.5397 127.549 34.2223 124.553 34.219C121.442 34.2567 118.374 33.4965 115.641 32.011Z" fill="#346BAD"/>
<path d="M141.186 27.768V12.625H137.721C137.599 12.6273 137.478 12.605 137.364 12.5593C137.251 12.5136 137.148 12.4456 137.062 12.3592C136.975 12.2729 136.907 12.17 136.862 12.0567C136.816 11.9434 136.794 11.8221 136.796 11.7C136.798 11.5366 136.839 11.3761 136.916 11.2321C136.993 11.088 137.104 10.9648 137.239 10.873L143.884 4.37299C144.091 4.12246 144.388 3.96335 144.711 3.93C144.836 3.92908 144.96 3.95543 145.074 4.00724C145.188 4.05905 145.289 4.13505 145.371 4.22999C145.543 4.41401 145.638 4.65699 145.637 4.909V8.81699H151.15C151.403 8.80864 151.655 8.85238 151.89 8.94544C152.126 9.03851 152.339 9.17893 152.518 9.35801C152.696 9.53761 152.836 9.75145 152.929 9.98658C153.022 10.2217 153.066 10.4732 153.059 10.726C153.064 10.9741 153.018 11.2206 152.925 11.4507C152.832 11.6808 152.694 11.8897 152.518 12.065C152.342 12.2495 152.13 12.3948 151.894 12.4915C151.658 12.5881 151.405 12.634 151.15 12.626H145.636V27.373C145.636 28.643 145.941 29.45 146.542 29.795C147.242 30.1615 148.026 30.3381 148.816 30.307C149.477 30.3038 150.134 30.2027 150.765 30.007C150.893 29.978 151.031 29.938 151.178 29.907C151.363 29.8725 151.551 29.8561 151.739 29.858C151.966 29.8577 152.191 29.9029 152.401 29.9908C152.611 30.0787 152.801 30.2076 152.96 30.37C153.131 30.5278 153.268 30.7196 153.361 30.9331C153.454 31.1465 153.502 31.3771 153.501 31.61C153.503 31.9741 153.397 32.3306 153.198 32.6352C152.998 32.9398 152.713 33.179 152.379 33.323C151.107 33.9063 149.723 34.2053 148.323 34.199C143.559 34.216 141.186 32.06 141.186 27.768Z" fill="#346BAD"/>
<path d="M162.421 32.602C160.547 31.5425 159.028 29.9534 158.054 28.034C157.043 25.9228 156.518 23.6118 156.518 21.271C156.518 18.9302 157.043 16.6192 158.054 14.508C159.029 12.5881 160.55 10.9989 162.425 9.94002C164.453 8.87952 166.707 8.32561 168.996 8.32561C171.284 8.32561 173.539 8.87952 175.567 9.94002C177.446 11.0008 178.972 12.5889 179.958 14.508C180.988 16.6138 181.523 18.9269 181.523 21.271C181.523 23.6151 180.988 25.9282 179.958 28.034C178.966 29.9489 177.441 31.5355 175.567 32.602C173.539 33.6626 171.285 34.2165 168.996 34.2165C166.707 34.2165 164.453 33.6626 162.425 32.602H162.421ZM172.846 29.235C174.118 28.5691 175.171 27.5504 175.878 26.301C176.668 24.7329 177.079 23.0017 177.079 21.246C177.079 19.4903 176.668 17.7591 175.878 16.191C175.178 14.9448 174.122 13.9352 172.846 13.291C171.649 12.6953 170.329 12.3852 168.992 12.3852C167.655 12.3852 166.335 12.6953 165.138 13.291C163.872 13.9375 162.827 14.9473 162.138 16.191C161.308 17.7341 160.904 19.4701 160.966 21.221C160.901 22.9882 161.305 24.7411 162.138 26.301C162.828 27.5523 163.872 28.5727 165.138 29.235C166.332 29.8433 167.652 30.1604 168.992 30.1604C170.332 30.1604 171.652 29.8433 172.846 29.235Z" fill="#346BAD"/>
<path d="M188.35 33.33C188.144 33.126 187.981 32.882 187.873 32.6128C187.765 32.3436 187.712 32.0551 187.72 31.765V10.816C187.713 10.523 187.766 10.2317 187.874 9.95943C187.982 9.68713 188.144 9.4394 188.35 9.23101C188.55 9.01683 188.792 8.84729 189.062 8.73354C189.332 8.61979 189.622 8.5644 189.915 8.57101C190.51 8.57285 191.079 8.80984 191.5 9.23025C191.921 9.65065 192.158 10.2204 192.16 10.815V12.915C194.434 9.8537 196.99 8.32469 199.829 8.32803H200.075C200.362 8.32046 200.647 8.37355 200.911 8.48385C201.176 8.59414 201.415 8.75913 201.611 8.96801C201.811 9.17573 201.968 9.42097 202.072 9.68957C202.177 9.95816 202.228 10.2448 202.221 10.533C202.229 10.8159 202.177 11.0973 202.069 11.3586C201.96 11.62 201.797 11.8553 201.591 12.049C201.149 12.4458 200.57 12.6543 199.977 12.63H199.731C198.222 12.6154 196.738 13.0138 195.439 13.782C194.12 14.564 193.001 15.6425 192.171 16.932V31.777C192.178 32.0697 192.122 32.3604 192.008 32.6301C191.895 32.8999 191.725 33.1425 191.511 33.342C191.303 33.5487 191.055 33.7117 190.783 33.8216C190.511 33.9315 190.219 33.986 189.926 33.982C189.633 33.9846 189.343 33.9281 189.072 33.8161C188.801 33.7041 188.556 33.5388 188.35 33.33Z" fill="#346BAD"/>
<path d="M207.517 30.82C205.282 28.5534 204.167 25.3704 204.17 21.271C204.147 19.0729 204.58 16.8939 205.44 14.871C206.26 12.9493 207.617 11.3051 209.348 10.136C211.279 8.88507 213.548 8.25682 215.848 8.33603C218.051 8.27958 220.222 8.86426 222.099 10.019C223.83 11.1095 225.218 12.6652 226.106 14.508C227.029 16.4196 227.497 18.5186 227.474 20.641C227.481 20.9292 227.43 21.2158 227.325 21.4844C227.221 21.753 227.064 21.9983 226.864 22.206C226.651 22.4194 226.395 22.5857 226.114 22.6942C225.832 22.8027 225.531 22.851 225.23 22.836H208.669C208.805 24.8705 209.713 26.7761 211.209 28.162C212.905 29.5198 215.046 30.1972 217.214 30.062C219.506 30.1145 221.775 29.5934 223.814 28.546C224.18 28.3714 224.589 28.3109 224.99 28.3725C225.39 28.434 225.763 28.6147 226.059 28.891C226.251 29.0622 226.404 29.2733 226.506 29.5096C226.608 29.7459 226.657 30.0017 226.65 30.259C226.626 30.6474 226.495 31.0216 226.271 31.3395C226.046 31.6575 225.738 31.9066 225.38 32.059C222.806 33.6021 219.833 34.3521 216.835 34.215C212.844 34.2164 209.738 33.0847 207.517 30.82ZM223.071 19.22C223.028 17.7968 222.599 16.412 221.831 15.213C221.159 14.1926 220.224 13.373 219.124 12.841C218.107 12.3423 216.989 12.0829 215.855 12.0829C214.722 12.0829 213.604 12.3423 212.587 12.841C211.489 13.3679 210.558 14.189 209.899 15.213C209.142 16.4157 208.72 17.7993 208.678 19.22H223.071Z" fill="#346BAD"/>
<path d="M198.568 50.43C198.454 50.3209 198.363 50.1893 198.302 50.0436C198.241 49.8978 198.211 49.741 198.214 49.583V49.455C198.212 49.2972 198.243 49.1407 198.304 48.995C198.365 48.8494 198.455 48.7177 198.568 48.608C198.677 48.4938 198.809 48.4034 198.954 48.3424C199.1 48.2815 199.257 48.2514 199.415 48.254H199.632C199.79 48.2523 199.946 48.2828 200.092 48.3437C200.238 48.4045 200.369 48.4945 200.479 48.608C200.593 48.7171 200.684 48.8486 200.745 48.9944C200.806 49.1401 200.837 49.297 200.834 49.455V49.583C200.836 49.7409 200.805 49.8975 200.744 50.0431C200.683 50.1887 200.593 50.3204 200.479 50.43C200.37 50.5443 200.238 50.6347 200.093 50.6956C199.947 50.7566 199.79 50.7866 199.632 50.784H199.415C199.257 50.7857 199.101 50.7552 198.955 50.6943C198.809 50.6334 198.678 50.5435 198.568 50.43Z" fill="#333333" stroke="#333333" stroke-width="0.669" stroke-miterlimit="10"/>
<path d="M204.259 50.548C204.169 50.4598 204.098 50.3539 204.051 50.2371C204.003 50.1203 203.98 49.9951 203.983 49.869V40.714C203.98 40.5865 204.003 40.4597 204.05 40.3412C204.098 40.2228 204.169 40.1152 204.259 40.025C204.345 39.932 204.451 39.8584 204.568 39.8093C204.685 39.7601 204.811 39.7365 204.938 39.74C205.066 39.74 205.193 39.7652 205.311 39.8142C205.429 39.8632 205.537 39.9351 205.627 40.0256C205.718 40.1161 205.79 40.2236 205.839 40.3419C205.888 40.4602 205.913 40.587 205.913 40.715V41.591C206.415 41.0228 207.007 40.5408 207.665 40.164C208.348 39.7961 209.115 39.6127 209.89 39.632C210.608 39.6144 211.316 39.8059 211.928 40.183C212.503 40.5525 212.961 41.0785 213.247 41.699C213.558 42.3609 213.717 43.0845 213.71 43.816V49.88C213.712 50.0069 213.688 50.1327 213.638 50.2496C213.589 50.3665 213.516 50.4719 213.424 50.559C213.334 50.6492 213.226 50.7202 213.108 50.7677C212.989 50.8151 212.863 50.838 212.735 50.835C212.609 50.8389 212.483 50.8164 212.366 50.7688C212.249 50.7213 212.144 50.6498 212.056 50.559C211.966 50.4708 211.895 50.365 211.848 50.2482C211.8 50.1314 211.777 50.0061 211.78 49.88V44.031C211.78 42.298 210.992 41.422 209.427 41.422C208.75 41.4138 208.086 41.6054 207.517 41.973C206.91 42.3869 206.372 42.893 205.922 43.473V49.882C205.924 50.0088 205.9 50.1346 205.851 50.2515C205.802 50.3684 205.729 50.4738 205.637 50.561C205.546 50.6506 205.439 50.7211 205.32 50.7685C205.202 50.8158 205.075 50.8392 204.948 50.837C204.82 50.8365 204.693 50.8107 204.575 50.7611C204.456 50.7115 204.349 50.6391 204.259 50.548Z" fill="#333333" stroke="#333333" stroke-width="0.669" stroke-miterlimit="10"/>
<path d="M219.566 55.519C218.845 55.3505 218.15 55.0858 217.499 54.732C217.373 54.6544 217.27 54.5436 217.202 54.4117C217.135 54.2798 217.104 54.1319 217.115 53.984C217.113 53.7562 217.202 53.537 217.361 53.374C217.438 53.2885 217.532 53.2205 217.637 53.1746C217.742 53.1287 217.856 53.106 217.971 53.108C218.104 53.1114 218.234 53.1417 218.355 53.197C219.45 53.7398 220.657 54.0163 221.879 54.004C224.054 54.004 225.144 52.8424 225.147 50.519V49.091C224.69 49.6073 224.127 50.0194 223.497 50.2996C222.867 50.5797 222.184 50.7214 221.495 50.715C220.609 50.7111 219.738 50.4779 218.969 50.0381C218.2 49.5983 217.557 48.9667 217.104 48.205C216.6 47.2703 216.336 46.225 216.336 45.163C216.336 44.101 216.6 43.0557 217.104 42.121C217.557 41.3593 218.2 40.7278 218.969 40.2879C219.738 39.8481 220.609 39.6149 221.495 39.611C222.184 39.6045 222.867 39.7462 223.497 40.0264C224.127 40.3066 224.69 40.7187 225.147 41.235V40.703C225.144 40.5755 225.167 40.4486 225.214 40.3302C225.262 40.2118 225.333 40.1042 225.423 40.014C225.509 39.921 225.615 39.8474 225.732 39.7983C225.849 39.7491 225.975 39.7255 226.102 39.729C226.23 39.729 226.357 39.7542 226.475 39.8032C226.593 39.8522 226.701 39.924 226.791 40.0146C226.882 40.1051 226.954 40.2126 227.003 40.3309C227.052 40.4492 227.077 40.576 227.077 40.704V50.243C227.174 51.7379 226.71 53.2152 225.777 54.387C225.301 54.8833 224.722 55.2699 224.081 55.5198C223.44 55.7697 222.753 55.8769 222.066 55.834C221.222 55.8403 220.382 55.7344 219.566 55.519ZM223.671 48.519C224.216 48.2079 224.714 47.8199 225.148 47.367V42.967C224.714 42.5141 224.216 42.1261 223.671 41.815C223.127 41.5234 222.516 41.3776 221.899 41.392C221.42 41.3739 220.942 41.4507 220.492 41.618C220.043 41.7853 219.631 42.0399 219.28 42.367C218.625 43.1551 218.266 44.1476 218.266 45.1725C218.266 46.1974 218.625 47.19 219.28 47.978C219.63 48.3059 220.042 48.5609 220.492 48.7283C220.941 48.8957 221.42 48.972 221.899 48.953C222.516 48.9569 223.125 48.8081 223.671 48.52V48.519Z" fill="#333333" stroke="#333333" stroke-width="0.669" stroke-miterlimit="10"/>
</svg>
