<svg width="34" height="34" viewBox="0 0 34 34" fill="none" xmlns="http://www.w3.org/2000/svg">
<circle cx="16.5316" cy="16.5306" r="13.7757" fill="#272D4E"/>
<path d="M16.5291 9.7544C18.7361 9.7544 18.9975 9.76283 19.869 9.80259C20.6749 9.83934 21.1126 9.97399 21.4038 10.0872C21.7896 10.2371 22.065 10.4162 22.3542 10.7054C22.6434 10.9947 22.8225 11.27 22.9725 11.6558C23.0857 11.9471 23.2203 12.3847 23.2571 13.1906C23.2968 14.0622 23.3053 14.3236 23.3053 16.5305C23.3053 18.7375 23.2968 18.9989 23.2571 19.8705C23.2203 20.6763 23.0857 21.114 22.9725 21.4052C22.8225 21.791 22.6434 22.0664 22.3542 22.3556C22.065 22.6448 21.7896 22.824 21.4038 22.9739C21.1126 23.0871 20.6749 23.2217 19.869 23.2585C18.9976 23.2982 18.7362 23.3067 16.5291 23.3067C14.322 23.3067 14.0606 23.2982 13.1892 23.2585C12.3833 23.2217 11.9456 23.0871 11.6544 22.9739C11.2686 22.824 10.9932 22.6448 10.704 22.3556C10.4148 22.0664 10.2357 21.791 10.0857 21.4052C9.97253 21.114 9.83788 20.6763 9.80113 19.8705C9.76137 18.9989 9.75294 18.7375 9.75294 16.5305C9.75294 14.3236 9.76137 14.0622 9.80113 13.1906C9.83788 12.3847 9.97253 11.9471 10.0857 11.6558C10.2357 11.27 10.4148 10.9947 10.704 10.7055C10.9932 10.4162 11.2686 10.2371 11.6544 10.0872C11.9456 9.97399 12.3833 9.83934 13.1892 9.80259C14.0607 9.76283 14.3221 9.7544 16.5291 9.7544ZM16.5291 8.26514C14.2843 8.26514 14.0029 8.27465 13.1213 8.31488C12.2415 8.355 11.6407 8.49474 11.1149 8.69904C10.5714 8.91027 10.1105 9.19289 9.65093 9.65239C9.19143 10.1119 8.90881 10.5729 8.69761 11.1164C8.49327 11.6421 8.35354 12.243 8.31341 13.1227C8.27319 14.0043 8.26367 14.2858 8.26367 16.5305C8.26367 18.7753 8.27319 19.0568 8.31341 19.9384C8.35354 20.8181 8.49327 21.419 8.69761 21.9447C8.90881 22.4882 9.19143 22.9492 9.65093 23.4087C10.1105 23.8682 10.5714 24.1508 11.1149 24.362C11.6407 24.5663 12.2415 24.7061 13.1213 24.7462C14.0029 24.7864 14.2843 24.7959 16.5291 24.7959C18.7739 24.7959 19.0553 24.7864 19.9369 24.7462C20.8167 24.7061 21.4175 24.5663 21.9433 24.362C22.4868 24.1508 22.9477 23.8682 23.4073 23.4087C23.8668 22.9492 24.1494 22.4882 24.3606 21.9447C24.5649 21.419 24.7047 20.8181 24.7448 19.9384C24.785 19.0568 24.7945 18.7753 24.7945 16.5305C24.7945 14.2858 24.785 14.0043 24.7448 13.1227C24.7047 12.243 24.5649 11.6421 24.3606 11.1164C24.1494 10.5729 23.8668 10.1119 23.4073 9.65239C22.9477 9.19289 22.4868 8.91027 21.9433 8.69904C21.4175 8.49474 20.8167 8.355 19.9369 8.31488C19.0553 8.27465 18.7739 8.26514 16.5291 8.26514Z" fill="white"/>
<path d="M16.5354 12.29C14.1913 12.29 12.291 14.1903 12.291 16.5344C12.291 18.8785 14.1913 20.7788 16.5354 20.7788C18.8796 20.7788 20.7798 18.8785 20.7798 16.5344C20.7798 14.1903 18.8796 12.29 16.5354 12.29ZM16.5354 19.2895C15.0138 19.2895 13.7803 18.056 13.7803 16.5344C13.7803 15.0128 15.0138 13.7793 16.5354 13.7793C18.0571 13.7793 19.2906 15.0128 19.2906 16.5344C19.2906 18.056 18.0571 19.2895 16.5354 19.2895Z" fill="white"/>
<path d="M21.9388 12.1197C21.9388 12.6675 21.4947 13.1115 20.9469 13.1115C20.3992 13.1115 19.9551 12.6675 19.9551 12.1197C19.9551 11.5719 20.3992 11.1278 20.9469 11.1278C21.4947 11.1278 21.9388 11.5719 21.9388 12.1197Z" fill="white"/>
</svg>
