<svg width="34" height="34" viewBox="0 0 34 34" fill="none" xmlns="http://www.w3.org/2000/svg">
<circle cx="16.5316" cy="16.5306" r="13.7757" fill="#272D4E"/>
<path fill-rule="evenodd" clip-rule="evenodd" d="M12.9333 9.83825C12.9333 10.6958 12.2803 11.3899 11.2592 11.3899C10.2778 11.3899 9.62478 10.6958 9.64499 9.83825C9.62478 8.93896 10.2778 8.26514 11.2787 8.26514C12.2803 8.26514 12.9137 8.93896 12.9333 9.83825ZM9.72709 22.605V12.6157H12.8316V22.6044H9.72709V22.605Z" fill="white"/>
<path fill-rule="evenodd" clip-rule="evenodd" d="M15.3184 15.8036C15.3184 14.5577 15.2774 13.4954 15.2363 12.617H17.9329L18.0763 13.9855H18.1375C18.5461 13.3521 19.5673 12.3928 21.2219 12.3928C23.2642 12.3928 24.7963 13.7411 24.7963 16.6815V22.6064H21.6917V17.0705C21.6917 15.7828 21.2427 14.905 20.1192 14.905C19.261 14.905 18.7507 15.4974 18.5468 16.0689C18.4647 16.2735 18.4242 16.5589 18.4242 16.8456V22.6064H15.3197V15.8036H15.3184Z" fill="white"/>
</svg>
