<svg width="34" height="34" viewBox="0 0 34 34" fill="none" xmlns="http://www.w3.org/2000/svg">
<circle cx="16.5316" cy="16.5306" r="13.7757" fill="#272D4E"/>
<path fill-rule="evenodd" clip-rule="evenodd" d="M24.7984 11.2329C24.1907 11.5028 23.5367 11.6847 22.8507 11.7668C23.551 11.3469 24.0888 10.6824 24.3417 9.89064C23.6871 10.2796 22.9603 10.5612 22.1884 10.7138C21.5696 10.0548 20.6875 9.6427 19.7128 9.6427C17.84 9.6427 16.3214 11.1612 16.3214 13.0341C16.3214 13.2996 16.3517 13.5586 16.4096 13.8071C13.5907 13.666 11.092 12.3156 9.41915 10.2637C9.12713 10.7645 8.96018 11.3469 8.96018 11.9684C8.96018 13.1448 9.558 14.1829 10.4688 14.7912C9.91229 14.7735 9.38995 14.6209 8.93207 14.3669V14.4093C8.93207 16.0529 10.1018 17.4233 11.6523 17.7357C11.368 17.8128 11.0683 17.8547 10.7592 17.8547C10.5404 17.8547 10.3277 17.8332 10.1206 17.7935C10.552 19.1407 11.8049 20.1215 13.2888 20.149C12.1284 21.0582 10.666 21.6009 9.07698 21.6009C8.80259 21.6009 8.53261 21.5849 8.26758 21.5529C9.76848 22.515 11.5509 23.077 13.4662 23.077C19.704 23.077 23.1152 17.9092 23.1152 13.428C23.1152 13.2809 23.1124 13.1343 23.1052 12.9894C23.7686 12.5101 24.3439 11.9128 24.7984 11.2329Z" fill="white"/>
</svg>
